<?xml version="1.0" standalone="no"?><!DOCTYPE svg PUBLIC "-//W3C//DTD SVG 1.1//EN" "http://www.w3.org/Graphics/SVG/1.1/DTD/svg11.dtd"><svg t="1564655568243" class="icon" viewBox="0 0 1024 1024" version="1.1" xmlns="http://www.w3.org/2000/svg" p-id="2266" xmlns:xlink="http://www.w3.org/1999/xlink" width="200" height="200"><defs><style type="text/css"></style></defs><path d="M663.134 675.185a63.13 63.13 0 0 1-16.047-2.082v207.793c3.648 1.277 7.305 2.601 11.325 2.601 21.723 0 39.336-20.12 39.336-44.962V663.978c-4.078 2.636-8.038 5.467-12.603 7.168-7.123 2.678-14.534 4.039-22.01 4.039z m212.923-399.943c-9.728-30.083-37.38-50.307-68.841-50.307H694.71c-20.505 0-38.808 9.197-52.174 23.514-2.503 3.397-5.206 6.634-8.026 9.776-1.703 2.638-2.932 5.607-4.312 8.488 31.189 10.92 56.383 35.812 67.046 68.805l72.852 225.396c3.3 10.186 4.488 20.72 3.573 31.11-0.685 8.075-2.63 15.79-5.555 23.037v207.848c0 24.138 19.433 43.703 43.429 43.703 23.973 0 43.417-19.565 43.417-43.703V489.185l12.348 38.202c5.898 18.245 22.72 29.854 40.795 29.854 4.387 0 8.866-0.7 13.284-2.147 16.907-5.537 28.065-20.625 29.486-37.38a42.6 42.6 0 0 0-1.962-17.036l-72.855-225.436zM710.07 185.81c9.437 3.223 19.368 5.354 29.886 5.354 10.519 0 20.463-2.131 29.896-5.354 36.537-12.485 62.984-46.735 62.984-87.515 0-51.295-41.583-92.883-92.879-92.883-51.286 0-92.869 41.59-92.869 92.883 0 40.781 26.454 75.03 62.982 87.515z m-70.411 156.991c-9.737-30.099-37.395-50.32-68.847-50.32H458.308c-20.506 0-38.812 9.195-52.177 23.513-2.511 3.396-5.204 6.634-8.021 9.78-1.717 2.633-2.947 5.597-4.315 8.485 31.191 10.91 56.376 35.811 67.05 68.807l72.84 225.387c3.302 10.199 4.502 20.73 3.585 31.109-0.684 8.078-2.626 15.804-5.561 23.038v207.862c0 24.138 19.44 43.696 43.43 43.696 23.985 0 43.426-19.558 43.426-43.696v-333.73l12.345 38.207c5.892 18.241 22.729 29.842 40.792 29.842 4.395 0 8.878-0.69 13.28-2.139 16.919-5.534 28.068-20.628 29.484-37.377 0.506-5.61-0.116-11.386-1.953-17.037L639.659 342.8zM460.51 742.72a63.14 63.14 0 0 1-16.057-2.084V948.44c3.658 1.274 7.304 2.602 11.325 2.602 21.724 0 39.333-20.121 39.333-44.964V731.521c-4.065 2.624-8.03 5.469-12.59 7.156-7.135 2.679-14.532 4.04-22.011 4.04z m13.155-489.367c9.424 3.226 19.364 5.356 29.885 5.356 10.52 0 20.46-2.13 29.886-5.356 36.538-12.486 62.994-46.735 62.994-87.515 0-51.293-41.586-92.878-92.88-92.878-51.288 0-92.871 41.586-92.871 92.877 0 40.782 26.445 75.032 62.987 87.516z m-71.37 173.877c-9.863-30.084-37.874-50.318-69.725-50.318H218.617c-31.855 0-59.864 20.234-69.724 50.318L75.108 652.654c-1.866 5.652-2.492 11.428-1.982 17.037 1.44 16.766 12.727 31.843 29.867 37.379a43.525 43.525 0 0 0 13.448 2.149c18.296 0 35.337-11.61 41.313-29.854l12.503-38.203v333.724c0 24.14 19.69 43.704 43.982 43.704s43.975-19.564 43.975-43.704v-261.13h34.75v261.138c0 24.137 19.693 43.692 43.984 43.692 24.294 0 43.975-19.555 43.975-43.692V641.16l12.505 38.202c5.973 18.244 23.013 29.854 41.32 29.854 4.452 0 8.979-0.701 13.451-2.15 17.126-5.535 28.426-20.612 29.862-37.378 0.503-5.608-0.126-11.386-1.98-17.037l-73.784-225.424z m-165.04-89.442c9.427 3.223 19.368 5.353 29.884 5.353 10.522 0 20.463-2.13 29.886-5.353 36.54-12.486 62.995-46.735 62.995-87.505 0-51.303-41.593-92.89-92.881-92.89-51.283 0-92.868 41.587-92.868 92.89 0.001 40.77 26.443 75.019 62.984 87.505z" fill="#ffaa00" p-id="2267"></path></svg>