<?xml version="1.0" standalone="no"?><!DOCTYPE svg PUBLIC "-//W3C//DTD SVG 1.1//EN" "http://www.w3.org/Graphics/SVG/1.1/DTD/svg11.dtd"><svg t="1564673163835" class="icon" viewBox="0 0 1024 1024" version="1.1" xmlns="http://www.w3.org/2000/svg" p-id="2027" xmlns:xlink="http://www.w3.org/1999/xlink" width="200" height="200"><defs><style type="text/css"></style></defs><path d="M195 258.6c-36.8 0-66.6 29.8-66.6 66.6v380.1c0 36.8 29.8 66.6 66.6 66.6s66.6-29.8 66.6-66.6V325.2c0-36.8-29.9-66.6-66.6-66.6zM628.9 258.6h-0.2c-36.9 0-66.7 29.9-66.7 66.7v379.9c0 36.9 29.9 66.7 66.7 66.7h0.2c36.9 0 66.7-29.9 66.7-66.7V325.3c0-36.8-29.9-66.7-66.7-66.7zM845.9 479.6h-0.2c-36.9 0-66.7 29.9-66.7 66.7v158.9c0 36.9 29.9 66.7 66.7 66.7h0.2c36.9 0 66.7-29.9 66.7-66.7V546.3c0-36.8-29.9-66.7-66.7-66.7z" fill="#FFCA28" p-id="2028"></path><path d="M412 77c-36.8 0-66.6 29.8-66.6 66.6v561.7c0 36.8 29.8 66.6 66.6 66.6s66.6-29.8 66.6-66.6V143.6c0-36.8-29.8-66.6-66.6-66.6zM932.3 821.8H91.7c-41.2 0-74.6 33.4-74.6 74.6 0 41.2 33.4 74.6 74.6 74.6h840.6c41.2 0 74.6-33.4 74.6-74.6 0-41.2-33.4-74.6-74.6-74.6z" fill="#FE555C" p-id="2029"></path></svg>